<svg width="40" height="40" viewBox="0 0 40 40" fill="none" xmlns="http://www.w3.org/2000/svg">
<g clip-path="url(#clip0_188_10936)">
<mask id="mask0_188_10936" style="mask-type:luminance" maskUnits="userSpaceOnUse" x="0" y="0" width="40" height="40">
<path d="M40 0H0V40H40V0Z" fill="white"/>
</mask>
<g mask="url(#mask0_188_10936)">
<path d="M29.7707 35.7202C25.2202 49.3441 13.0826 53.5459 6.66516 36.6285C5.77984 34.3028 8.08718 33.4404 9.70186 32.4129C10.8074 31.7111 11.3899 31.1056 11.3211 30.4771C11 27.523 9.62846 19.2936 9.62846 19.2936L9.49085 19.0276C9.49085 19.0276 9.52296 18.9542 9.38993 19.0826C9.25232 19.2202 8.9358 20.6514 7.69268 20.6514C6.56883 20.6514 5.4358 20.1514 4.89452 16.6927C4.6881 15.4404 4.79819 12.156 6.19268 11.5597C6.76608 11.3166 7.2936 11.2294 7.80736 11.523C8.32571 11.8166 7.21103 10.5138 12.945 5.74317C16.6697 2.63308 22.5551 2.17895 24.9312 2.70647C27.3074 3.234 29.6789 4.39455 30.7294 6.85785C32.0046 9.8395 29.5413 12.101 30.0872 18.8991C29.9863 21.3578 30.1239 26.7523 23.3624 28.5597C22.078 28.9037 22.4771 30.7799 24.4037 31.2386C27.4771 32.2019 29.7707 34.5551 29.7707 35.7294" fill="#F9FAFB"/>
<path fill-rule="evenodd" clip-rule="evenodd" d="M29.7706 14.5505L29.7752 14.4863C29.9633 12.8166 30.1513 11.1973 31.0183 9.74316C31.3165 9.945 31.2798 10.2019 31.188 10.4404C30.2752 12.789 30.3624 15.2294 30.4449 17.6698L30.4633 18.312C30.5596 21.3578 29.7981 24.1285 27.7706 26.4542C27.0642 27.2615 26.1284 27.8211 25.1789 28.3028C24.1972 28.8074 23.9908 29.2248 24.2981 30.3028L24.3348 30.4221C24.3991 30.601 24.4633 30.7844 24.289 30.9633C24.0825 31.1744 23.8532 31.1147 23.6101 31.0459L23.5825 31.0413C21.3082 30.4045 19.1756 29.3413 17.2981 27.9083C17.0229 27.7065 16.8027 27.4358 16.5871 27.1698L16.5734 27.1514C16.4587 27.0138 16.4357 26.7936 16.5963 26.6744C16.7477 26.5597 16.8624 26.6514 16.9954 26.7569L17.0413 26.7982C18.0429 27.6109 19.2586 28.116 20.5413 28.2523C21.1559 28.3166 21.7614 28.2936 22.3761 28.2707C22.7156 28.2569 23.055 28.2432 23.3991 28.2478C23.8669 28.2478 24.2568 28.0322 24.6238 27.8257L24.7523 27.7523C26.0275 27.0413 27.2431 26.2478 28.0642 24.9679C28.8027 23.8211 29.2523 22.5734 29.5137 21.2569C29.844 19.601 29.8165 17.9221 29.789 16.2202C29.7752 15.6698 29.766 15.1101 29.766 14.5505H29.7706ZM6.67887 11.0918C7.68345 11.0138 8.2385 11.6055 8.71098 12.2982C9.27096 13.1445 9.62303 14.1111 9.7385 15.1193C9.76144 15.289 9.78437 15.4679 9.68345 15.6377C9.47703 15.6652 9.45868 15.5 9.4541 15.3808C9.43116 14.4312 9.00914 13.6055 8.58712 12.8074C8.28437 12.234 7.84401 11.6789 7.14676 11.5413C6.35777 11.3808 5.633 12.0918 5.2752 13.0184C4.61006 14.7432 4.72474 16.4404 5.33942 18.1101C5.60547 18.8395 5.94034 19.5826 6.61465 20.0918C7.29355 20.6101 8.11465 20.5184 8.61465 19.8303L8.70639 19.7156C8.79813 19.5964 8.88988 19.4817 8.93575 19.3487C9.03208 19.0826 9.18345 18.8349 9.4541 18.8716C9.76602 18.9175 9.82107 19.2523 9.85318 19.5138C10.1377 21.9168 10.4742 24.3134 10.8624 26.7019L11.133 28.4817C11.2523 29.2661 11.3899 30.3945 11.2981 30.8716C11.2922 30.905 11.2876 30.9387 11.2844 30.9725C11.266 31.101 11.2568 31.2019 11.0917 31.2248C10.8669 31.2615 10.7706 31.1331 10.7385 30.9312C10.633 30.1514 10.6009 29.8487 10.555 28.656C10.5137 27.5 10.2981 26.3624 10.078 25.2202L9.84859 23.9817C9.61006 22.5689 9.37612 21.1377 9.35318 19.5322L9.26144 19.6698C8.91281 20.1881 8.633 20.6101 8.13758 20.7707C7.76983 20.9116 7.36681 20.932 6.98672 20.8289C6.60662 20.7259 6.26911 20.5047 6.0229 20.1973C5.37652 19.4672 4.92244 18.5875 4.7018 17.6377C4.31648 16.078 4.24767 14.5597 4.74309 13.023C4.98162 12.2844 5.83024 10.9725 6.67887 11.0964V11.0918ZM8.26602 16.9404C8.46786 17.0872 8.65134 17.2156 8.81648 16.6927C8.76602 14.7569 8.14217 13.5184 7.17428 13.4679C7.68804 14.1377 8.18345 14.789 8.22933 15.6927C8.03845 15.5952 7.87099 15.4575 7.7385 15.289C7.64676 15.1881 7.55501 15.0872 7.44034 15.0138L7.30272 14.9037C7.08254 14.7386 6.85777 14.5643 6.48621 14.6973C6.66052 14.9633 6.89905 15.156 7.14217 15.3395C7.4174 15.5551 7.69263 15.7661 7.85777 16.0964C7.37153 16.4496 7.16052 16.9083 7.41281 17.4679C7.633 17.9496 7.95868 18.3487 8.60089 18.3762C8.57336 18.0872 8.38529 17.8762 8.19722 17.6698C7.96786 17.4221 7.75226 17.1835 7.85318 16.8166C7.99997 16.7478 8.13758 16.8487 8.26602 16.9404Z" fill="#1A1A1A"/>
<path d="M48.4129 60.5045L-11.3899 60.344C-11.3899 60.344 -9.24769 46.3944 -3.52751 39.9311C-0.963286 37.0366 1.16974 34.1789 6.8991 32.1238C7.88075 31.7706 9.33488 28.0871 10.1147 27.7018C10.8532 27.3348 10.367 30.0963 11.0505 30.6559C12.4442 31.8189 13.9155 32.8856 15.4541 33.8486C18.156 35.555 19.3991 39.1192 19.3991 39.1192C19.3991 39.1192 20.6101 35.6834 21.6193 33.9954C22.3303 32.8027 24.7064 29.2981 24.7064 29.2981C24.7064 29.2981 29.0505 30.6559 30.6606 31.8532C31.6376 32.5779 31.0642 32.4174 35.4954 34.9495C39.3441 37.1467 43.1193 43.1651 45.1285 48.1605C47.2661 53.4724 48.4129 60.5 48.4129 60.5V60.5045Z" fill="#F9FAFB"/>
<path fill-rule="evenodd" clip-rule="evenodd" d="M48.1192 60.5046C47.8119 59.266 47.5458 58.0275 47.2798 56.7844C47.1651 56.2339 47.0504 55.6835 46.9265 55.1422C46.5504 53.4449 46.055 51.7936 45.5091 50.1514C44.9831 48.5538 44.3392 46.9975 43.5825 45.4954C42.8309 43.9616 41.9725 42.4824 41.0137 41.0688C39.6376 39.0826 38.1421 37.1926 36.1605 35.7752C34.7201 34.7477 33.1238 33.977 31.5321 33.211C30.9678 32.9358 30.3899 33.0642 29.8256 33.1881L29.6421 33.2339C29.188 33.3257 28.7431 33.4266 28.2935 33.5275C27.7549 33.6502 27.2151 33.768 26.6743 33.8807C26.4403 33.9266 26.3532 34.0642 26.2843 34.2569L26.0091 35.0596C25.821 35.6193 25.6284 36.1789 25.4541 36.7431C25.3348 37.1193 25.133 37.2844 24.7339 37.2752C24.3944 37.2706 24.055 37.2752 23.7155 37.2844C23.3486 37.289 22.9862 37.2982 22.6238 37.289C21.9816 37.2752 21.6651 37.5046 21.7431 38.2752C21.8302 39.1009 21.8256 39.9312 21.8256 40.766C21.8256 41.2569 21.8256 41.7477 21.8394 42.2431C21.8853 43.5046 21.8853 44.7798 21.8623 46.0367C21.8165 48.3899 21.8165 50.7431 21.8165 53.1009C21.821 55.5413 21.8256 57.9862 21.7706 60.4495C21.5943 60.5011 21.4073 60.5043 21.2293 60.4587C21.1697 57.9771 21.1421 55.5367 21.1559 53.0963C21.1651 51.6376 21.1559 50.1743 21.1513 48.711C21.133 45.7798 21.1192 42.8486 21.2339 39.9174C21.2431 39.7569 21.188 39.6101 21.0091 39.6055C20.9045 39.7225 20.799 39.8387 20.6926 39.9541C20.1054 40.5963 19.5275 41.2293 19.2522 42.1514C18.8715 41.711 18.7155 41.1972 18.5596 40.7064C18.3898 40.1605 18.2247 39.6376 17.7798 39.2431C17.688 39.5092 17.688 39.7523 17.688 40V41.5137L17.6972 44.6789L17.6926 48.5504C17.688 51.3486 17.6834 54.1422 17.6926 56.9358C17.6972 57.2752 17.6926 57.6147 17.6788 57.9495C17.6605 58.8027 17.6376 59.656 17.7706 60.5H17.1192C17.059 59.5455 17.03 58.5894 17.0321 57.633V39.3303C17.0321 38.2293 16.6788 37.9174 15.6284 37.633C13.8853 37.1743 12.133 36.6743 10.7935 35.3532C10.2981 34.867 9.766 35.1101 9.32563 35.3073L9.27058 35.3348C8.87609 35.5183 8.46783 35.6514 8.05958 35.7844C7.50912 35.9679 6.95866 36.1514 6.44948 36.4404C6.34398 36.4954 6.24765 36.5596 6.14673 36.6238C5.95571 36.7527 5.75298 36.8633 5.54123 36.9541L5.44031 37C5.30269 37.0642 5.16967 37.1238 5.0137 36.977C4.83939 36.8211 4.84398 36.6559 4.92196 36.4495L5.18343 35.6651C5.41279 34.9679 5.64214 34.2752 5.9449 33.6009L5.99077 33.5092C6.05499 33.4037 6.11462 33.2982 6.05499 33.1559C5.8715 33.0321 5.70178 33.1238 5.5504 33.2064L5.46783 33.2523L5.36691 33.2982L5.27517 33.344C3.33022 34.3211 1.38526 35.2982 -0.220242 36.8303C-1.36504 37.9043 -2.42336 39.0669 -3.38538 40.3073C-5.23372 42.7627 -6.74128 45.4568 -7.86703 48.3165C-8.9496 51.0137 -9.88538 53.7752 -10.3579 56.6651C-10.4496 57.1972 -10.5322 57.7293 -10.6193 58.266L-10.9817 60.4541C-11.234 60.5 -11.4771 60.5 -11.7661 60.5C-11.5551 58.9862 -11.312 57.4725 -11.023 55.9633C-10.9175 55.4174 -10.7799 54.8807 -10.6377 54.344C-10.5551 54.0137 -10.4679 53.6881 -10.3946 53.3578C-10.1344 52.3248 -9.82363 51.3052 -9.46336 50.3027L-9.41749 50.1789C-8.46416 47.2984 -7.17062 44.5419 -5.56428 41.9679C-4.78926 40.7336 -3.91479 39.5645 -2.9496 38.4725C-1.20648 36.4862 0.720125 34.711 3.13756 33.5963C4.44948 32.9908 5.66967 32.266 6.88068 31.4954C7.22471 31.2752 7.38526 30.9587 7.5504 30.6422C7.61462 30.5275 7.67425 30.4082 7.74765 30.2936C8.42196 29.2156 9.12379 28.1651 10.1834 27.4128L10.2568 27.3578C10.3899 27.2523 10.5183 27.1559 10.7018 27.266C10.8669 27.3578 10.8577 27.5 10.8532 27.6514V27.7798C10.8807 28.5413 10.9449 29.2982 11.0091 30.055C11.0321 30.2982 11.133 30.5137 11.3761 30.6238C12.4036 31.0963 13.2798 31.7844 14.1559 32.4771C14.6834 32.8899 15.211 33.3027 15.7706 33.6697C17.12 34.5265 18.2384 35.7016 19.0275 37.0917C19.1192 37.2569 19.188 37.4312 19.266 37.633L19.3853 37.9358C19.8119 36.2156 20.7293 34.8073 21.6467 33.4082L22.1834 32.5826C22.2752 32.4358 22.3486 32.2798 22.422 32.1238C22.5229 31.9128 22.6238 31.7018 22.7798 31.5092C22.8926 31.3718 22.9631 31.2045 22.9826 31.0278C23.0022 30.8511 22.9699 30.6725 22.8899 30.5137C22.7889 30.2982 22.7339 30.0734 22.821 29.8394C23.211 29.7202 23.4174 29.9449 23.6376 30.1789L23.6834 30.2248C24.0963 29.9587 24.0504 29.6147 23.8348 29.2477C23.7614 29.1193 23.6972 28.9954 23.8073 28.8715C23.9128 28.7569 24.055 28.7706 24.1926 28.8119C25.8944 29.3027 27.5871 29.8211 29.1559 30.6743C29.3715 30.7936 29.5963 30.9037 29.821 31.0092C30.4311 31.3027 31.0412 31.5963 31.4862 32.0871C32.1926 32.867 33.0963 33.289 33.9999 33.711C34.5412 33.9679 35.0779 34.2156 35.5779 34.5459C36.6995 35.2458 37.7369 36.0723 38.6697 37.0092C39.7247 38.1238 40.7109 39.3027 41.5687 40.5688C42.321 41.6697 43.0366 42.7982 43.6605 43.9862C44.5102 45.6042 45.2459 47.2795 45.8623 49C46.4357 50.5917 46.9265 52.2064 47.3623 53.8394C47.6743 55.0229 47.8761 56.2248 48.0733 57.4312C48.2431 58.4404 48.4082 59.4495 48.6421 60.4587C48.4954 60.5046 48.3348 60.5046 48.1192 60.5046ZM18.1972 36.8899C17.138 35.6208 15.8967 34.5155 14.5137 33.6101C14.0996 33.3367 13.7028 33.038 13.3256 32.7156C12.7752 32.266 12.2247 31.8119 11.5733 31.5137C10.8027 31.1651 10.3899 30.6697 10.3623 29.8394V29.7293C10.3577 29.5504 10.3532 29.3715 10.3302 29.1972C10.2935 28.8486 9.88526 28.6651 9.66967 28.9266C9.59627 29.0183 9.50912 29.0917 9.42655 29.1697C9.30568 29.2692 9.19916 29.385 9.11003 29.5137C8.05499 31.1926 7.00912 32.8715 6.24765 34.711C6.14673 34.9587 6.07792 35.2844 6.28893 35.4862C6.45866 35.6514 6.67425 35.5642 6.88526 35.477C6.92171 35.4612 6.95842 35.4459 6.99535 35.4312L7.88985 35.0917C8.49077 34.8532 9.09627 34.6193 9.71554 34.4312C10.3715 34.2339 10.8715 34.3486 11.3348 34.867C11.8254 35.3891 12.4253 35.7964 13.0917 36.0596C13.821 36.3807 14.5688 36.6238 15.3165 36.8715C15.9678 37.0871 16.6192 37.3027 17.2568 37.5642C18.0412 37.8853 18.7706 38.3027 18.7614 39.3303C18.7614 39.4908 18.7981 39.6514 19.0642 39.6284C19.1972 39.2615 19.1972 38.8945 19.0137 38.5275L18.7752 38.0413C18.5917 37.6743 18.4082 37.2982 18.1972 36.8899ZM26.5137 30.2431L26.9265 30.3899L28.9678 31.3303C29.338 31.4983 29.708 31.6665 30.0779 31.8348C30.2247 31.9037 30.3853 31.9725 30.3853 32.1605C30.3853 32.3624 30.2247 32.3899 30.0779 32.4174L29.9954 32.4358C29.7732 32.4891 29.5515 32.5442 29.3302 32.6009C28.7614 32.7431 28.1926 32.8853 27.61 32.9725C26.3899 33.1559 25.7293 33.6468 25.3944 34.8211C25.3532 34.9679 25.3027 35.1147 25.2477 35.2569C25.1743 35.4633 25.1054 35.6697 25.0642 35.8715C24.9495 36.422 24.5963 36.477 24.1697 36.5137L23.3577 36.6055C22.9128 36.6514 22.4678 36.7064 22.0183 36.7339C21.6513 36.7569 21.4403 36.9449 21.3027 37.2385C21.1972 37.4587 21.0779 37.6697 20.9632 37.8807C20.7431 38.2798 20.5183 38.6789 20.3853 39.1193C20.321 39.3211 20.2293 39.6238 19.8486 39.6147C19.9403 38.5137 20.2155 37.4449 20.6513 36.4358C20.9495 35.7477 21.3669 35.1376 21.7843 34.5321C22.133 34.0183 22.4816 33.5046 22.7614 32.9541C23.2752 31.922 24.0275 31.1009 24.7889 30.2798L25.0275 30.0183C25.188 29.8394 25.2981 29.789 25.5137 29.8715C25.8486 30.0092 26.1834 30.1284 26.5229 30.2477L26.5137 30.2431Z" fill="#1A1A1A"/>
<path fill-rule="evenodd" clip-rule="evenodd" d="M30 43.1835C29.7339 41.5596 29.7706 40.0183 30.5183 38.4541C31.8532 39.9587 31.8211 41.711 31.7935 43.422L31.7844 44.1422C32.0137 44.2293 32.1376 44.1468 32.2477 44.0734L32.3578 44.0091C32.9312 43.7569 33.1055 43.8624 33.2018 44.5C33.3761 45.6559 33.3853 46.8257 33.3945 47.9908L33.399 48.4954C33.399 48.8119 33.2293 49.0413 33.0091 49.188C32.4197 49.6253 31.8866 50.1337 31.422 50.7018C31.1192 51.0367 30.8165 51.3761 30.4862 51.6835C30.0321 52.0963 29.2614 52.2339 28.7614 51.8532L28.2798 51.4908C27.555 50.9495 26.8348 50.4128 26.1468 49.8211C25.8145 49.5647 25.5606 49.2205 25.4138 48.8273C25.2671 48.4341 25.2334 48.0077 25.3165 47.5963C25.3945 47.1192 25.4357 46.633 25.477 46.1422C25.5137 45.7569 25.5458 45.3715 25.5963 44.9862C25.7247 44.0367 25.9036 43.9266 26.766 44.3027C26.844 44.3348 26.922 44.3578 27 44.3761C27.2064 44.4312 27.422 44.4908 27.6101 44.7431L27.7018 44.055C27.7752 43.5046 27.844 42.9954 27.8394 42.477V42.4495C27.8394 42.3761 27.8394 42.2844 27.8027 42.2569C26.977 41.6972 27.1284 40.9633 27.4954 40.2523L27.5413 40.1605C27.8117 39.7138 27.9968 39.2207 28.0871 38.7064C28.0871 38.6513 28.1376 38.6009 28.1789 38.5504L28.2339 38.4862L28.3027 38.5L28.3715 38.5183C28.4403 38.9954 28.6926 39.3761 28.9403 39.7614C29.1513 40.0871 29.3624 40.4128 29.4679 40.7936C29.5871 41.2477 29.5137 41.6284 29.188 41.9174C28.8669 42.2064 28.8211 42.5413 28.8669 42.9266L28.8991 43.2018C28.9266 43.4174 28.9541 43.6376 28.9633 43.8578C29.0046 44.6697 29.1284 44.7706 30.0137 44.6101C30.1009 44.1513 30.0734 43.6926 30 43.1835ZM31.344 49.6972C31.3899 49.6513 31.4449 49.6101 31.4954 49.5688C31.6041 49.4713 31.719 49.3809 31.8394 49.2981C32.4816 48.8853 32.7935 48.3532 32.6835 47.5413C32.6238 47.0963 32.6376 46.6468 32.6376 46.1926C32.6468 45.9587 32.6468 45.7247 32.6422 45.4908V45.3807C32.6422 45.1697 32.6422 44.9541 32.4587 44.7844C32.2477 44.8302 32.0504 44.922 31.8578 45.0137C31.5825 45.1376 31.3073 45.2614 31.0091 45.2614C30.6697 45.2614 30.3302 45.2706 29.9908 45.2844C28.9082 45.3211 27.8257 45.3624 26.7844 44.9266C26.4266 44.7752 26.2844 44.8899 26.266 45.266C26.2201 46.1835 26.1055 47.0917 25.9403 47.9908L25.9357 48.0091C25.8807 48.2981 25.8211 48.6376 26.1009 48.8715C27.0932 49.6846 28.0901 50.492 29.0917 51.2936C29.4495 51.5871 29.8165 51.5229 30.0596 51.1743C30.2543 50.9147 30.4674 50.6694 30.6972 50.4403C30.9128 50.211 31.1376 49.9724 31.3394 49.6972H31.344ZM30.4128 41.0871C30.4679 41.1147 30.5275 41.1468 30.5871 41.1238L31.1376 41.055C30.7706 41.4312 30.5458 41.4358 30.1697 41.0917C30.2568 41.0046 30.3348 41.0458 30.4128 41.0871Z" fill="#1A1A1A"/>
<path d="M32.5641 9.33029C29.3485 9.97249 24.2155 6.86699 20.3715 4.48625C20.1467 4.34864 19.8531 4.33946 19.743 4.66974C19.1926 6.3257 17.7981 7.20185 16.5183 8.1835C15.9999 8.58258 15.4632 8.97708 14.9128 9.33029C13.5504 10.2064 13.0917 11.6652 12.4816 13.0275C11.9999 14.1193 11.2751 14.9633 10.1284 15.3853C9.59166 15.5872 9.4724 15.5092 9.47698 14.922C9.48157 13.9129 9.20175 12.9496 8.6146 12.1697C7.67882 10.9312 6.83478 10.7385 5.51827 11.6468C5.2201 11.8532 5.10084 12.3211 4.87607 12.6973C4.43111 12.5413 4.25221 12.1101 4.0412 11.7844C2.90818 10.0459 2.43111 8.09634 2.31643 6.04589C2.26598 5.06882 2.59625 4.15139 2.85772 3.24772C3.26021 1.69774 4.07684 0.286482 5.2201 -0.83485C6.31185 -1.87155 7.61919 -2.41742 9.0779 -2.72476C10.2981 -2.97705 11.5091 -3.02292 12.7339 -2.92659C13.1008 -2.89448 13.3348 -3.08256 13.5366 -3.3165C14.8539 -4.92236 16.5889 -6.13349 18.5504 -6.8165C24.0229 -8.6743 28.1467 -1.211 28.4678 -0.816502C28.6054 -0.64219 28.7247 -0.532097 28.954 -0.628428C30.7018 -1.37613 32.5504 -1.48623 34.4036 -1.3165C35.9036 -1.18806 37.6651 -0.894483 38.2247 0.60093C39.5733 4.20644 35.4724 8.74772 32.5641 9.33029Z" fill="#1A1A1A"/>
<path d="M24.7981 22.6697C25.1283 23.0688 25.2155 23.5872 25.7247 23.8165C25.9311 23.9083 25.8348 24.1697 25.5916 24.234C25.4395 24.2669 25.283 24.2747 25.1283 24.2569C24.1008 24.1835 23.0779 24.1009 22.0458 24.2798C21.6926 24.3395 21.3118 24.2661 20.9449 24.2477C20.7476 24.2386 20.6008 24.1376 20.5779 23.9358C20.5549 23.734 20.7384 23.6422 20.876 23.6376C21.5045 23.6193 21.8394 23.1697 22.1972 22.7661C22.5091 22.3991 22.8852 22.3349 23.3348 22.3303C23.8439 22.3211 24.376 22.1468 24.8027 22.6697H24.7981ZM24.0916 25.4358C23.6329 25.4908 23.1972 25.5918 22.8072 25.1514C23.2384 24.9312 23.6283 24.9587 23.9999 24.9312C24.1375 24.922 24.3164 25.0184 24.3485 25.1927C24.3715 25.3257 24.243 25.3808 24.0916 25.4358Z" fill="#1A1A1A"/>
<path d="M24.7753 16.0184C24.9542 16.7661 25.1147 17.4679 25.2891 18.1606C25.5184 19.0597 25.3854 19.4634 24.5689 19.8074C23.6514 20.1835 22.4817 20.1285 21.8349 19.0964C21.734 18.9358 21.6698 18.7936 21.6973 18.6101C21.7294 18.4634 21.7845 18.3487 21.945 18.3212C22.1147 18.2936 22.1744 18.39 22.2386 18.5322C22.6698 19.4358 23.3258 19.6881 24.2432 19.3166C24.7065 19.1331 24.8533 18.7753 24.7019 18.3257C24.3759 17.3291 24.168 16.2975 24.0826 15.2524C24.0138 14.5735 23.89 13.867 24.3441 13.2661H24.5276L24.7753 16.0184Z" fill="#1A1A1A"/>
<path d="M22.7753 18.7845C22.5138 18.4129 22.7753 18.2937 23.0276 18.2203C23.2111 18.1652 23.4037 18.2661 23.39 18.4772C23.367 18.8441 23.1101 18.8808 22.7753 18.7845Z" fill="#1A1A1A"/>
<path d="M26.7523 14.6652C27.3532 14.6789 27.9174 14.711 28.4816 14.7798C28.6192 14.7936 28.7064 14.9312 28.711 15.0826C28.711 15.2386 28.6284 15.3441 28.4908 15.4037C27.9816 15.6285 27.4816 15.7844 26.9449 15.4129C26.6467 15.211 26.5367 15.0184 26.7523 14.6652ZM19.6651 14.789C19.9495 14.9404 19.9036 15.1101 19.7614 15.2844C19.4633 15.6514 18.4678 15.7431 18.0917 15.445C17.8761 15.2707 17.7568 15.0505 17.8899 14.7844C18.0275 14.5092 18.266 14.5551 18.4862 14.6697C18.8532 14.8532 19.2385 14.8074 19.6651 14.789Z" fill="#1A1A1A"/>
<path d="M18.1101 11.5551C18.5459 11.0689 19.1101 10.812 19.5596 10.4083C19.7706 10.2202 20 10.2753 20.1743 10.4817C20.3486 10.679 20.5092 10.8624 20.2982 11.1469C19.7985 11.7753 19.1129 12.2296 18.3394 12.445C17.6789 12.6606 16.9725 12.7294 16.2844 12.8579C16.078 12.8991 15.8165 13.0092 15.7569 12.6927C15.7018 12.39 15.9037 12.234 16.1926 12.179C16.844 12.0505 17.4954 11.9404 18.1101 11.5551ZM28.8027 11.468C29.3211 11.5597 29.6284 11.9725 30.078 12.1193C30.2523 12.1744 30.4633 12.3349 30.3807 12.5551C30.2844 12.8212 30.0138 12.7524 29.8211 12.6927C29.2117 12.499 28.6117 12.277 28.0229 12.0276C27.4358 11.7707 26.8715 11.4588 26.3073 11.156C26.0321 11.0092 25.7752 10.7982 25.9679 10.4588C26.1605 10.1239 26.4725 10.023 26.8073 10.2891C27.4037 10.7707 28.1193 11.0459 28.8073 11.468H28.8027Z" fill="#1A1A1A"/>
</g>
</g>
<defs>
<clipPath id="clip0_188_10936">
<path d="M0 20C0 8.95431 8.95431 0 20 0C31.0457 0 40 8.95431 40 20C40 31.0457 31.0457 40 20 40C8.95431 40 0 31.0457 0 20Z" fill="white"/>
</clipPath>
</defs>
</svg>
