<svg width="16" height="20" viewBox="0 0 16 20" fill="none" xmlns="http://www.w3.org/2000/svg">
<path d="M7 16V16.5C7 16.6333 7.05 16.75 7.15 16.85C7.25 16.95 7.36667 17 7.5 17H8.5C8.63333 17 8.75 16.95 8.85 16.85C8.95 16.75 9 16.6333 9 16.5V16H10C10.2833 16 10.521 15.904 10.713 15.712C10.905 15.52 11.0007 15.2827 11 15V12C11 11.7167 10.904 11.4793 10.712 11.288C10.52 11.0967 10.2827 11.0007 10 11H7V10H10C10.2833 10 10.521 9.904 10.713 9.712C10.905 9.52 11.0007 9.28267 11 9C10.9993 8.71733 10.9033 8.48 10.712 8.288C10.5207 8.096 10.2833 8 10 8H9V7.5C9 7.36667 8.95 7.25 8.85 7.15C8.75 7.05 8.63333 7 8.5 7H7.5C7.36667 7 7.25 7.05 7.15 7.15C7.05 7.25 7 7.36667 7 7.5V8H6C5.71667 8 5.47933 8.096 5.288 8.288C5.09667 8.48 5.00067 8.71733 5 9V12C5 12.2833 5.096 12.521 5.288 12.713C5.48 12.905 5.71733 13.0007 6 13H9V14H6C5.71667 14 5.47933 14.096 5.288 14.288C5.09667 14.48 5.00067 14.7173 5 15C4.99933 15.2827 5.09533 15.5203 5.288 15.713C5.48067 15.9057 5.718 16.0013 6 16H7ZM2 20C1.45 20 0.979333 19.8043 0.588 19.413C0.196666 19.0217 0.000666667 18.5507 0 18V2C0 1.45 0.196 0.979333 0.588 0.588C0.98 0.196667 1.45067 0.000666667 2 0H11L16 5V18C16 18.55 15.8043 19.021 15.413 19.413C15.0217 19.805 14.5507 20.0007 14 20H2ZM10 2V5C10 5.28333 10.096 5.521 10.288 5.713C10.48 5.905 10.7173 6.00067 11 6H14L10 2Z" fill="#101828"/>
</svg>
