<svg width="20" height="15" viewBox="0 0 20 15" fill="none" xmlns="http://www.w3.org/2000/svg">
<path d="M12 2V0H20V2H12ZM12 6V4H20V6H12ZM12 10V8H20V10H12ZM6 9C5.16667 9 4.45833 8.70833 3.875 8.125C3.29167 7.54167 3 6.83333 3 6C3 5.16667 3.29167 4.45833 3.875 3.875C4.45833 3.29167 5.16667 3 6 3C6.83333 3 7.54167 3.29167 8.125 3.875C8.70833 4.45833 9 5.16667 9 6C9 6.83333 8.70833 7.54167 8.125 8.125C7.54167 8.70833 6.83333 9 6 9ZM0 15V13.1C0 12.75 0.0833333 12.4167 0.25 12.1C0.416667 11.7833 0.65 11.5333 0.95 11.35C1.7 10.9 2.496 10.5627 3.338 10.338C4.18 10.1133 5.06733 10.0007 6 10C6.93267 9.99933 7.82033 10.112 8.663 10.338C9.50567 10.564 10.3013 10.9013 11.05 11.35C11.35 11.5333 11.5833 11.7833 11.75 12.1C11.9167 12.4167 12 12.75 12 13.1V15H0ZM2.15 13H9.85C9.26667 12.6667 8.65 12.4167 8 12.25C7.35 12.0833 6.68333 12 6 12C5.31667 12 4.65 12.0833 4 12.25C3.35 12.4167 2.73333 12.6667 2.15 13ZM6 7C6.28333 7 6.521 6.904 6.713 6.712C6.905 6.52 7.00067 6.28267 7 6C6.99933 5.71733 6.90333 5.48 6.712 5.288C6.52067 5.096 6.28333 5 6 5C5.71667 5 5.47933 5.096 5.288 5.288C5.09667 5.48 5.00067 5.71733 5 6C4.99933 6.28267 5.09533 6.52033 5.288 6.713C5.48067 6.90567 5.718 7.00133 6 7Z" fill="#101828"/>
</svg>
