<svg width="12" height="16" viewBox="0 0 12 16" fill="none" xmlns="http://www.w3.org/2000/svg">
<g clip-path="url(#clip0_1690_3580)">
<g clip-path="url(#clip1_1690_3580)">
<path d="M2 0C0.896875 0 0 0.896875 0 2V14C0 15.1031 0.896875 16 2 16H10C11.1031 16 12 15.1031 12 14V5H8C7.44688 5 7 4.55312 7 4V0H2ZM8 0V4H12L8 0ZM3.5 8H8.5C8.775 8 9 8.225 9 8.5C9 8.775 8.775 9 8.5 9H3.5C3.225 9 3 8.775 3 8.5C3 8.225 3.225 8 3.5 8ZM3.5 10H8.5C8.775 10 9 10.225 9 10.5C9 10.775 8.775 11 8.5 11H3.5C3.225 11 3 10.775 3 10.5C3 10.225 3.225 10 3.5 10ZM3.5 12H8.5C8.775 12 9 12.225 9 12.5C9 12.775 8.775 13 8.5 13H3.5C3.225 13 3 12.775 3 12.5C3 12.225 3.225 12 3.5 12Z" fill="#525252"/>
</g>
</g>
<defs>
<clipPath id="clip0_1690_3580">
<rect width="12" height="16" fill="white"/>
</clipPath>
<clipPath id="clip1_1690_3580">
<path d="M0 0H12V16H0V0Z" fill="white"/>
</clipPath>
</defs>
</svg>
