<svg width="185" height="41" viewBox="0 0 185 41" fill="none" xmlns="http://www.w3.org/2000/svg">
<g clip-path="url(#clip0_661_2001)">
<path d="M16.688 0.315918L0 28.5515L28.0186 33.7265L35.9837 21.0207L17.9906 18.4332L29.4242 0.315918H16.688Z" fill="#194185"/>
<path d="M28.9558 7.37358L22.0137 19.0123L17.9907 18.4332L29.4244 0.315918L28.9558 7.37358Z" fill="url(#paint0_linear_661_2001)"/>
<path d="M28.0186 33.7263L28.4061 40.3157L35.9836 27.4177V21.0205" fill="url(#paint1_linear_661_2001)"/>
<path d="M68.6802 27.4105V35.1212H47.8809V8.90381H56.8614V27.4105H68.6827H68.6802Z" fill="#194185"/>
<path d="M92.4354 25.5204C92.4354 31.4569 87.7158 35.6979 81.2299 35.6979C74.7441 35.6979 70.0244 31.4569 70.0244 25.5204C70.0244 19.584 74.7441 15.2642 81.2299 15.2642C87.7158 15.2642 92.4354 19.621 92.4354 25.5204ZM84.9904 25.5204C84.9904 23.3617 83.418 21.7427 81.2299 21.7427C79.0418 21.7427 77.4301 23.3617 77.4301 25.5204C77.4301 27.6791 79.0418 29.2612 81.2299 29.2612C83.418 29.2612 84.9904 27.7186 84.9904 25.5204Z" fill="#194185"/>
<path d="M116.385 25.5204C116.385 31.4569 111.665 35.6979 105.179 35.6979C98.6933 35.6979 93.9736 31.4569 93.9736 25.5204C93.9736 19.584 98.6933 15.2642 105.179 15.2642C111.665 15.2642 116.385 19.621 116.385 25.5204ZM108.94 25.5204C108.94 23.3617 107.367 21.7427 105.179 21.7427C102.991 21.7427 101.379 23.3617 101.379 25.5204C101.379 27.6791 102.991 29.2612 105.179 29.2612C107.367 29.2612 108.94 27.7186 108.94 25.5204Z" fill="#194185"/>
<path d="M150.617 23.0907V35.1187H141.982V25.4046C141.982 23.4381 141.099 23.0143 140.216 23.0143C139.639 23.0143 139.257 23.2065 138.872 23.5539V35.1187H130.237V25.4046C130.237 23.4381 129.354 23.0143 128.471 23.0143C127.894 23.0143 127.512 23.2065 127.126 23.5539V35.1187H118.492V15.8432H127.126V16.8462C128.623 15.7274 130.043 15.2666 131.885 15.2666C134.189 15.2666 136.031 16.0379 137.257 17.5411C139.176 15.9221 141.173 15.2666 143.437 15.2666C148.041 15.2666 150.614 17.9255 150.614 23.0931L150.617 23.0907Z" fill="#194185"/>
<path d="M153.497 9.55951C153.497 6.90057 155.645 4.93408 158.295 4.93408C160.944 4.93408 163.093 6.90057 163.093 9.55951C163.093 12.2185 160.905 14.1849 158.295 14.1849C155.685 14.1849 153.497 12.2185 153.497 9.55951ZM162.629 15.8434V35.1189H153.995V15.8434H162.629Z" fill="#194185"/>
<path d="M184.39 20.3159L177.443 27.9872H184.39V35.1188H165.585V30.6461L172.763 22.9749H165.585V15.8433H184.39V20.3159Z" fill="#194185"/>
</g>
<defs>
<linearGradient id="paint0_linear_661_2001" x1="17.9907" y1="9.66289" x2="29.4244" y2="9.66289" gradientUnits="userSpaceOnUse">
<stop offset="0.49" stop-color="#32548E"/>
<stop offset="1" stop-color="#416CB4"/>
</linearGradient>
<linearGradient id="paint1_linear_661_2001" x1="28.0186" y1="30.6681" x2="35.9836" y2="30.6681" gradientUnits="userSpaceOnUse">
<stop offset="0.45" stop-color="#32548E"/>
<stop offset="1" stop-color="#416CB4"/>
</linearGradient>
<clipPath id="clip0_661_2001">
<rect width="184.39" height="40" fill="white" transform="translate(0 0.315918)"/>
</clipPath>
</defs>
</svg>
