<svg width="48" height="48" viewBox="0 0 48 48" fill="none" xmlns="http://www.w3.org/2000/svg">
<g id="menu-open-rounded">
<path id="Vector" d="M8.00001 36C7.43334 36 6.95867 35.808 6.57601 35.424C6.19334 35.04 6.00134 34.5653 6.00001 34C5.99867 33.4347 6.19067 32.96 6.57601 32.576C6.96134 32.192 7.43601 32 8.00001 32H30C30.5667 32 31.042 32.192 31.426 32.576C31.81 32.96 32.0013 33.4347 32 34C31.9987 34.5653 31.8067 35.0407 31.424 35.426C31.0413 35.8113 30.5667 36.0027 30 36H8.00001ZM37.8 32.6L30.6 25.4C30.2 25 30 24.5333 30 24C30 23.4667 30.2 23 30.6 22.6L37.8 15.4C38.1667 15.0333 38.6333 14.85 39.2 14.85C39.7667 14.85 40.2333 15.0333 40.6 15.4C40.9667 15.7667 41.15 16.2333 41.15 16.8C41.15 17.3667 40.9667 17.8333 40.6 18.2L34.8 24L40.6 29.8C40.9667 30.1667 41.15 30.6333 41.15 31.2C41.15 31.7667 40.9667 32.2333 40.6 32.6C40.2333 32.9667 39.7667 33.15 39.2 33.15C38.6333 33.15 38.1667 32.9667 37.8 32.6ZM8.00001 26C7.43334 26 6.95867 25.808 6.57601 25.424C6.19334 25.04 6.00134 24.5653 6.00001 24C5.99867 23.4347 6.19067 22.96 6.57601 22.576C6.96134 22.192 7.43601 22 8.00001 22H24C24.5667 22 25.042 22.192 25.426 22.576C25.81 22.96 26.0013 23.4347 26 24C25.9987 24.5653 25.8067 25.0407 25.424 25.426C25.0413 25.8113 24.5667 26.0027 24 26H8.00001ZM8.00001 16C7.43334 16 6.95867 15.808 6.57601 15.424C6.19334 15.04 6.00134 14.5653 6.00001 14C5.99867 13.4347 6.19067 12.96 6.57601 12.576C6.96134 12.192 7.43601 12 8.00001 12H30C30.5667 12 31.042 12.192 31.426 12.576C31.81 12.96 32.0013 13.4347 32 14C31.9987 14.5653 31.8067 15.0407 31.424 15.426C31.0413 15.8113 30.5667 16.0027 30 16H8.00001Z" fill="#101828"/>
</g>
</svg>
