<svg width="20" height="20" viewBox="0 0 20 20" fill="none" xmlns="http://www.w3.org/2000/svg">
<g id="Group 558">
<path id="Vector" d="M10.001 19.5H9.99999C8.68169 19.5 7.44938 19.2504 6.29799 18.7539C5.13704 18.2532 4.13213 17.5756 3.27868 16.7216C2.4251 15.8673 1.74777 14.8623 1.24709 13.7019C0.750592 12.5512 0.500637 11.3188 0.500001 9.99975C0.499366 8.681 0.749257 7.44897 1.24691 6.29851C1.749 5.13777 2.4265 4.1325 3.27895 3.27816C4.13083 2.42438 5.13548 1.74726 6.29759 1.2473C7.4507 0.751224 8.68334 0.501276 10.0005 0.500005C11.317 0.498735 12.549 0.748554 13.7015 1.24694C14.8643 1.74973 15.8694 2.42719 16.7216 3.27869C17.5736 4.13004 18.2513 5.13501 18.754 6.29835C19.2524 7.45162 19.5019 8.68357 19.5 9.99927C19.4981 11.3159 19.2481 12.5487 18.7526 13.7027C18.2533 14.8653 17.5763 15.8697 16.7221 16.7208C15.8669 17.5728 14.8613 18.2508 13.701 18.7543C12.5516 19.253 11.32 19.5025 10.001 19.5ZM10.4844 15.2834C10.3386 15.4293 10.1708 15.5 9.94999 15.5C9.73253 15.5 9.56373 15.43 9.4146 15.2825C9.26858 15.1381 9.19874 14.9723 9.19999 14.7528C9.20126 14.5289 9.27304 14.3604 9.41704 14.2161C9.56024 14.0725 9.72777 14.0008 9.95189 14C10.1734 13.9991 10.3396 14.0695 10.483 14.2141C10.6287 14.361 10.6996 14.5299 10.7 14.7509C10.7004 14.9704 10.6303 15.1376 10.4844 15.2834ZM10.4182 11.65H9.56074C9.58747 11.0711 9.66104 10.7209 9.74721 10.5486C9.79962 10.4438 9.91714 10.2778 10.1313 10.0438C10.3394 9.81648 10.6196 9.54536 10.9759 9.22927C11.3051 8.95477 11.5853 8.65221 11.8125 8.32054C12.0658 7.95076 12.2 7.54056 12.2 7.1C12.2 6.60925 12.0081 6.17189 11.6692 5.80082C11.2781 5.37255 10.7227 5.2 10.1 5.2C9.40231 5.2 8.79399 5.40735 8.37906 5.90469C8.19964 6.11975 8.04708 6.33684 7.92859 6.55568L7.20466 6.2705C7.41592 5.84436 7.71626 5.46544 8.11083 5.13181C8.59274 4.72434 9.2404 4.5 10.1 4.5C10.9386 4.5 11.6409 4.72263 12.2297 5.15351C12.7699 5.54872 13.05 6.10722 13.05 6.9C13.05 7.37162 12.9435 7.74508 12.7534 8.04314C12.5289 8.3952 12.2142 8.7781 11.8014 9.19144C11.2215 9.73939 10.7928 10.2373 10.6231 10.666C10.5122 10.9462 10.4472 11.2777 10.4182 11.65ZM9.99999 18.5C12.3631 18.5 14.3828 17.6743 16.0285 16.0285C17.6743 14.3828 18.5 12.3631 18.5 9.99999C18.5 7.63686 17.6743 5.61718 16.0285 3.97145C14.3828 2.32572 12.3631 1.5 9.99999 1.5C7.63686 1.5 5.61718 2.32572 3.97145 3.97145C2.32571 5.61718 1.5 7.63686 1.5 9.99999C1.5 12.3631 2.32571 14.3828 3.97145 16.0285C5.61718 17.6743 7.63686 18.5 9.99999 18.5Z" fill="#194185" stroke="#194185"/>
</g>
</svg>
