<svg width="21" height="20" viewBox="0 0 21 20" fill="none" xmlns="http://www.w3.org/2000/svg">
<rect width="21" height="20" fill="white" fill-opacity="0.3"/>
<g id="Dashboard">
<path d="M-1733 -263C-1733 -264.105 -1732.1 -265 -1731 -265H20204C20205.1 -265 20206 -264.105 20206 -263V6627C20206 6628.1 20205.1 6629 20204 6629H-1731C-1732.11 6629 -1733 6628.1 -1733 6627V-263Z" fill="#444444"/>
<path d="M-1731 -264H20204V-266H-1731V-264ZM20205 -263V6627H20207V-263H20205ZM20204 6628H-1731V6630H20204V6628ZM-1732 6627V-263H-1734V6627H-1732ZM-1731 6628C-1731.55 6628 -1732 6627.55 -1732 6627H-1734C-1734 6628.66 -1732.66 6630 -1731 6630V6628ZM20205 6627C20205 6627.55 20204.6 6628 20204 6628V6630C20205.7 6630 20207 6628.66 20207 6627H20205ZM20204 -264C20204.6 -264 20205 -263.553 20205 -263H20207C20207 -264.656 20205.7 -266 20204 -266V-264ZM-1731 -266C-1732.66 -266 -1734 -264.657 -1734 -263H-1732C-1732 -263.552 -1731.55 -264 -1731 -264V-266Z" fill="white" fill-opacity="0.1"/>
<g id="Dashboard/overview 1" clip-path="url(#clip0_20_267)">
<rect width="1512" height="982" transform="translate(-1392 -27)" fill="#F6F8FB"/>
<g id="Nav Bar">
<g id="Frame 710" filter="url(#filter0_d_20_267)">
<rect width="1512" height="70" transform="translate(-1392 -25)" fill="white"/>
<g id="Frame 709">
<g id="Frame 708">
<g id="Frame 707">
<g id="Frame 705">
<path id="Vector" d="M10.5 0.375C11.6666 0.375001 12.7689 0.568759 13.8096 0.955078L14.252 1.13281C15.2809 1.57669 16.1891 2.15696 16.9785 2.87402L17.3096 3.19043C18.0654 3.94688 18.6859 4.82089 19.1699 5.81543L19.3691 6.24902C19.8112 7.27098 20.0602 8.35481 20.1143 9.50293L20.125 9.99902C20.1233 11.1664 19.929 12.2693 19.5439 13.3096L19.3672 13.752C18.9251 14.7803 18.3454 15.6886 17.627 16.4785L17.3105 16.8096C16.5522 17.5663 15.6769 18.1863 14.6836 18.6699L14.251 18.8691C13.085 19.3738 11.8356 19.6263 10.5 19.625L10.0039 19.6133C9.01887 19.5659 8.08161 19.376 7.19043 19.0449L6.74902 18.8682C5.72089 18.4242 4.81203 17.8433 4.02148 17.126L3.69043 16.8096C2.82555 15.9453 2.13946 14.9273 1.63281 13.752C1.12922 12.5835 0.875666 11.3339 0.875 10L0.886719 9.50391C0.941596 8.35544 1.19019 7.27126 1.63184 6.24902C2.07642 5.22011 2.65797 4.31164 3.375 3.52148L3.69043 3.19043C4.44606 2.43423 5.31982 1.81406 6.31445 1.33105L6.74805 1.13281C7.91718 0.628555 9.16689 0.375 10.5 0.375ZM10.5 1.625C8.32873 1.62565 6.45028 2.34537 4.88184 3.77734L4.57227 4.07324C2.94346 5.70204 2.125 7.68455 2.125 10C2.125 11.0255 2.2946 11.9959 2.63672 12.9072C2.97684 13.8132 3.45278 14.6264 4.06445 15.3438L4.29492 15.6143L4.57812 15.3975C5.29364 14.8504 6.08404 14.4043 6.9502 14.0586L7.32617 13.916C8.20842 13.6012 9.12821 13.4237 10.0869 13.3838L10.5 13.375C11.4696 13.3744 12.4002 13.5127 13.293 13.7891L13.6738 13.916C14.689 14.2796 15.6049 14.7742 16.4229 15.3984L16.7051 15.6133L16.9355 15.3438C17.5479 14.6264 18.0241 13.8133 18.3643 12.9072C18.7064 11.9958 18.8757 11.0255 18.875 10L18.8652 9.56934C18.7757 7.57988 18.06 5.84614 16.7236 4.38184L16.4277 4.07227C14.9008 2.54471 13.0628 1.73012 10.9307 1.63477L10.5 1.625ZM10.5 4.375C11.2762 4.375 11.9341 4.60524 12.4902 5.06641L12.7227 5.27832C13.3254 5.88102 13.6256 6.61366 13.625 7.5L13.6104 7.8252C13.5537 8.4619 13.3286 9.01391 12.9336 9.49121L12.7227 9.72363C12.1967 10.2511 11.5698 10.5465 10.8262 10.6113L10.501 10.625H10.5C9.72357 10.625 9.065 10.3955 8.50879 9.93457L8.27734 9.72266C7.67487 9.12078 7.3744 8.38782 7.375 7.5C7.37558 6.72296 7.60557 6.06448 8.06641 5.50879L8.27832 5.27734C8.88029 4.67538 9.61272 4.375 10.5 4.375Z" fill="#194185" stroke="#194185" stroke-width="0.75"/>
</g>
</g>
</g>
</g>
</g>
</g>
</g>
</g>
<defs>
<filter id="filter0_d_20_267" x="-1396" y="-25" width="1520" height="78" filterUnits="userSpaceOnUse" color-interpolation-filters="sRGB">
<feFlood flood-opacity="0" result="BackgroundImageFix"/>
<feColorMatrix in="SourceAlpha" type="matrix" values="0 0 0 0 0 0 0 0 0 0 0 0 0 0 0 0 0 0 127 0" result="hardAlpha"/>
<feOffset dy="4"/>
<feGaussianBlur stdDeviation="2"/>
<feComposite in2="hardAlpha" operator="out"/>
<feColorMatrix type="matrix" values="0 0 0 0 0 0 0 0 0 0 0 0 0 0 0 0 0 0 0.15 0"/>
<feBlend mode="normal" in2="BackgroundImageFix" result="effect1_dropShadow_20_267"/>
<feBlend mode="normal" in="SourceGraphic" in2="effect1_dropShadow_20_267" result="shape"/>
</filter>
<clipPath id="clip0_20_267">
<rect width="1512" height="982" fill="white" transform="translate(-1392 -27)"/>
</clipPath>
</defs>
</svg>
