<svg width="22" height="18" viewBox="0 0 22 18" fill="none" xmlns="http://www.w3.org/2000/svg">
<path d="M4.99994 7.95001L3.99993 8.50001C3.7666 8.63334 3.5166 8.66667 3.24993 8.60001C2.98327 8.53334 2.78327 8.38334 2.64994 8.15001L0.649935 4.65001C0.516602 4.41667 0.483268 4.16667 0.549935 3.90001C0.616602 3.63334 0.766602 3.43334 0.999935 3.30001L6.74994 7.19423e-06H8.49994C8.64993 7.19423e-06 8.77094 0.0460072 8.86294 0.138007C8.95494 0.230007 9.0006 0.350674 8.99994 0.500007V1.00001C8.99994 1.55001 9.19594 2.02101 9.58794 2.41301C9.97994 2.80501 10.4506 3.00067 10.9999 3.00001C11.5493 2.99934 12.0203 2.80367 12.4129 2.41301C12.8056 2.02234 13.0013 1.55134 12.9999 1.00001V0.500007C12.9999 0.350007 13.0459 0.229007 13.1379 0.137007C13.2299 0.0450073 13.3506 -0.000659472 13.4999 7.19423e-06H15.2499L20.9999 3.30001C21.2333 3.43334 21.3833 3.63334 21.4499 3.90001C21.5166 4.16667 21.4833 4.41667 21.3499 4.65001L19.3499 8.15001C19.2166 8.38334 19.0206 8.52934 18.7619 8.58801C18.5033 8.64667 18.2493 8.60901 17.9999 8.47501L16.9999 7.97501V17C16.9999 17.2833 16.9039 17.521 16.7119 17.713C16.5199 17.905 16.2826 18.0007 15.9999 18H5.99994C5.7166 18 5.47927 17.904 5.28794 17.712C5.0966 17.52 5.0006 17.2827 4.99994 17V7.95001Z" fill="#194185"/>
</svg>
