<svg width="30" height="30" viewBox="0 0 30 30" fill="none" xmlns="http://www.w3.org/2000/svg">
<g id="ic:outline-settings">
<path id="Vector" d="M24.2871 16.225C24.3371 15.825 24.3746 15.425 24.3746 15C24.3746 14.575 24.3371 14.175 24.2871 13.775L26.9246 11.7125C27.1621 11.525 27.2246 11.1875 27.0746 10.9125L24.5746 6.58753C24.5009 6.45856 24.3837 6.36006 24.2439 6.30966C24.1042 6.25927 23.9511 6.26029 23.8121 6.31253L20.6996 7.56253C20.0496 7.06253 19.3496 6.65003 18.5871 6.33753L18.1121 3.02503C18.0909 2.87818 18.0171 2.74401 17.9044 2.64746C17.7918 2.5509 17.6479 2.49851 17.4996 2.50003H12.4996C12.1871 2.50003 11.9246 2.72503 11.8871 3.02503L11.4121 6.33753C10.6496 6.65003 9.94955 7.07503 9.29955 7.56253L6.18706 6.31253C6.11441 6.28863 6.03853 6.27599 5.96206 6.27503C5.74956 6.27503 5.53706 6.38753 5.42456 6.58753L2.92456 10.9125C2.76206 11.1875 2.83706 11.525 3.07456 11.7125L5.71206 13.775C5.66206 14.175 5.62456 14.5875 5.62456 15C5.62456 15.4125 5.66206 15.825 5.71206 16.225L3.07456 18.2875C2.83706 18.475 2.77456 18.8125 2.92456 19.0875L5.42456 23.4125C5.49824 23.5415 5.61545 23.64 5.75518 23.6904C5.89491 23.7408 6.04801 23.7398 6.18706 23.6875L9.29955 22.4375C9.94955 22.9375 10.6496 23.35 11.4121 23.6625L11.8871 26.975C11.9246 27.275 12.1871 27.5 12.4996 27.5H17.4996C17.8121 27.5 18.0746 27.275 18.1121 26.975L18.5871 23.6625C19.3496 23.35 20.0496 22.925 20.6996 22.4375L23.8121 23.6875C23.8871 23.7125 23.9621 23.725 24.0371 23.725C24.2496 23.725 24.4621 23.6125 24.5746 23.4125L27.0746 19.0875C27.2246 18.8125 27.1621 18.475 26.9246 18.2875L24.2871 16.225ZM21.8121 14.0875C21.8621 14.475 21.8746 14.7375 21.8746 15C21.8746 15.2625 21.8496 15.5375 21.8121 15.9125L21.6371 17.325L22.7496 18.2L24.0996 19.25L23.2246 20.7625L21.6371 20.125L20.3371 19.6L19.2121 20.45C18.6746 20.85 18.1621 21.15 17.6496 21.3625L16.3246 21.9L16.1246 23.3125L15.8746 25H14.1246L13.8871 23.3125L13.6871 21.9L12.3621 21.3625C11.8246 21.1375 11.3246 20.85 10.8246 20.475L9.68706 19.6L8.36205 20.1375L6.77456 20.775L5.89955 19.2625L7.24956 18.2125L8.36205 17.3375L8.18706 15.925C8.14956 15.5375 8.12456 15.25 8.12456 15C8.12456 14.75 8.14956 14.4625 8.18706 14.0875L8.36205 12.675L7.24956 11.8L5.89955 10.75L6.77456 9.23753L8.36205 9.87503L9.66206 10.4L10.7871 9.55003C11.3246 9.15003 11.8371 8.85003 12.3496 8.63753L13.6746 8.10003L13.8746 6.68753L14.1246 5.00003H15.8621L16.0996 6.68753L16.2996 8.10003L17.6246 8.63753C18.1621 8.86253 18.6621 9.15003 19.1621 9.52503L20.2996 10.4L21.6246 9.86253L23.2121 9.22503L24.0871 10.7375L22.7496 11.8L21.6371 12.675L21.8121 14.0875ZM14.9996 10C12.2371 10 9.99956 12.2375 9.99956 15C9.99956 17.7625 12.2371 20 14.9996 20C17.7621 20 19.9996 17.7625 19.9996 15C19.9996 12.2375 17.7621 10 14.9996 10ZM14.9996 17.5C13.6246 17.5 12.4996 16.375 12.4996 15C12.4996 13.625 13.6246 12.5 14.9996 12.5C16.3746 12.5 17.4996 13.625 17.4996 15C17.4996 16.375 16.3746 17.5 14.9996 17.5Z" fill="black"/>
</g>
</svg>
