<svg width="19" height="19" viewBox="0 0 19 19" fill="none" xmlns="http://www.w3.org/2000/svg">
<path fill-rule="evenodd" clip-rule="evenodd" d="M7.875 0.87498C8.08212 0.87498 8.25 1.04286 8.25 1.24998V8.37498C8.25 8.58207 8.08212 8.74998 7.875 8.74998H0.75C0.542883 8.74998 0.375 8.58207 0.375 8.37498V1.24998C0.375 1.04286 0.542883 0.87498 0.75 0.87498H7.875ZM6.65625 2.46873H1.96875V7.15623H6.65625V2.46873ZM18.2187 4.52387C18.3652 4.67031 18.3652 4.90775 18.2187 5.05419L13.9761 9.29685C13.8296 9.44328 13.5922 9.44328 13.4458 9.29685L9.20313 5.05419C9.05669 4.90775 9.05669 4.67031 9.20313 4.52387L13.4458 0.281215C13.5922 0.134777 13.8296 0.134777 13.9761 0.281215L18.2187 4.52387ZM16.23 4.78902L13.7109 2.26998L11.1919 4.78904L13.7109 7.30811L16.23 4.78902ZM7.875 10.25C8.08212 10.25 8.25 10.4179 8.25 10.625V17.75C8.25 17.9571 8.08212 18.125 7.875 18.125H0.75C0.542883 18.125 0.375 17.9571 0.375 17.75V10.625C0.375 10.4179 0.542883 10.25 0.75 10.25H7.875ZM6.65625 11.8437H1.96875V16.5312H6.65625V11.8437ZM17.25 10.25C17.4571 10.25 17.625 10.4179 17.625 10.625V17.75C17.625 17.9571 17.4571 18.125 17.25 18.125H10.125C9.91788 18.125 9.75 17.9571 9.75 17.75V10.625C9.75 10.4179 9.91788 10.25 10.125 10.25H17.25ZM16.0312 11.8437H11.3438V16.5312H16.0312V11.8437Z" fill="#1A1A1A"/>
</svg>
