<svg width="30" height="30" viewBox="0 0 30 30" fill="none" xmlns="http://www.w3.org/2000/svg">
<g id="ic:baseline-dvr">
<path id="Vector" d="M26.25 3.75H3.75C2.375 3.75 1.25 4.875 1.25 6.25V21.25C1.25 22.625 2.375 23.75 3.75 23.75H10V26.25H20V23.75H26.25C27.625 23.75 28.7375 22.625 28.7375 21.25L28.75 6.25C28.75 4.875 27.625 3.75 26.25 3.75ZM26.25 21.25H3.75V6.25H26.25V21.25ZM23.75 10H10V12.5H23.75V10ZM23.75 15H10V17.5H23.75V15ZM8.75 10H6.25V12.5H8.75V10ZM8.75 15H6.25V17.5H8.75V15Z" fill="black"/>
</g>
</svg>
