<svg width="16" height="17" viewBox="0 0 16 17" fill="none" xmlns="http://www.w3.org/2000/svg">
<path d="M1 16.5C0.716667 16.5 0.479333 16.404 0.288 16.212C0.0966668 16.02 0.000666667 15.7827 0 15.5V5.5C0 5.21667 0.0960001 4.97933 0.288 4.788C0.48 4.59667 0.717333 4.50067 1 4.5H3C3.28333 4.5 3.521 4.596 3.713 4.788C3.905 4.98 4.00067 5.21733 4 5.5V15.5C4 15.7833 3.904 16.021 3.712 16.213C3.52 16.405 3.28267 16.5007 3 16.5H1ZM6 16.5C5.71667 16.5 5.47933 16.404 5.288 16.212C5.09667 16.02 5.00067 15.7827 5 15.5V10.5C5 10.2167 5.096 9.97933 5.288 9.788C5.48 9.59667 5.71733 9.50067 6 9.5H8C8.28333 9.5 8.521 9.596 8.713 9.788C8.905 9.98 9.00067 10.2173 9 10.5V15.5C9 15.7833 8.904 16.021 8.712 16.213C8.52 16.405 8.28267 16.5007 8 16.5H6ZM13 16.5C12.7167 16.5 12.4793 16.404 12.288 16.212C12.0967 16.02 12.0007 15.7827 12 15.5V1.5C12 1.21667 12.096 0.979333 12.288 0.788C12.48 0.596667 12.7173 0.500667 13 0.5H15C15.2833 0.5 15.521 0.596 15.713 0.788C15.905 0.98 16.0007 1.21733 16 1.5V15.5C16 15.7833 15.904 16.021 15.712 16.213C15.52 16.405 15.2827 16.5007 15 16.5H13Z" fill="#1A1A1A"/>
</svg>
