<svg width="30" height="30" viewBox="0 0 30 30" fill="none" xmlns="http://www.w3.org/2000/svg">
<g id="ic:outline-mark-chat-unread">
<path id="Vector" d="M27.5 8.725V20C27.5 21.375 26.375 22.5 25 22.5H7.5L2.5 27.5V5C2.5 3.625 3.625 2.5 5 2.5H17.625C17.55 2.9 17.5 3.325 17.5 3.75C17.5 4.175 17.55 4.6 17.625 5H5V20H25V9.875C25.925 9.6875 26.775 9.275 27.5 8.725ZM20 3.75C20 5.825 21.675 7.5 23.75 7.5C25.825 7.5 27.5 5.825 27.5 3.75C27.5 1.675 25.825 0 23.75 0C21.675 0 20 1.675 20 3.75Z" fill="black"/>
</g>
</svg>
