<svg width="20" height="17" viewBox="0 0 20 17" fill="none" xmlns="http://www.w3.org/2000/svg">
<path d="M15 11.5C14.3 11.5 13.7083 11.2583 13.225 10.775C12.7417 10.2917 12.5 9.7 12.5 9C12.5 8.3 12.7417 7.70833 13.225 7.225C13.7083 6.74167 14.3 6.5 15 6.5C15.7 6.5 16.2917 6.74167 16.775 7.225C17.2583 7.70833 17.5 8.3 17.5 9C17.5 9.7 17.2583 10.2917 16.775 10.775C16.2917 11.2583 15.7 11.5 15 11.5ZM10 15.5V15.1C10 14.7 10.1043 14.3293 10.313 13.988C10.5217 13.6467 10.8173 13.4007 11.2 13.25C11.8 13 12.421 12.8127 13.063 12.688C13.705 12.5633 14.3507 12.5007 15 12.5C15.6493 12.4993 16.2953 12.562 16.938 12.688C17.5807 12.814 18.2013 13.0013 18.8 13.25C19.1833 13.4 19.4793 13.646 19.688 13.988C19.8967 14.33 20.0007 14.7007 20 15.1V15.5C20 15.7833 19.904 16.021 19.712 16.213C19.52 16.405 19.2827 16.5007 19 16.5H11C10.7167 16.5 10.4793 16.404 10.288 16.212C10.0967 16.02 10.0007 15.7827 10 15.5ZM8 8.5C6.9 8.5 5.95833 8.10833 5.175 7.325C4.39167 6.54167 4 5.6 4 4.5C4 3.4 4.39167 2.45833 5.175 1.675C5.95833 0.891667 6.9 0.5 8 0.5C9.1 0.5 10.0417 0.891667 10.825 1.675C11.6083 2.45833 12 3.4 12 4.5C12 5.6 11.6083 6.54167 10.825 7.325C10.0417 8.10833 9.1 8.5 8 8.5ZM0 13.7C0 13.1333 0.141667 12.6127 0.425 12.138C0.708333 11.6633 1.1 11.3007 1.6 11.05C2.6 10.55 3.63767 10.1667 4.713 9.9C5.78833 9.63333 6.884 9.5 8 9.5C8.58333 9.5 9.16667 9.55 9.75 9.65C10.3333 9.75 10.9167 9.86667 11.5 10L10.65 10.85L9.8 11.7C9.5 11.6167 9.2 11.5627 8.9 11.538C8.6 11.5133 8.3 11.5007 8 11.5C7.03333 11.5 6.08733 11.6167 5.162 11.85C4.23667 12.0833 3.34933 12.4167 2.5 12.85C2.33333 12.9333 2.20833 13.05 2.125 13.2C2.04167 13.35 2 13.5167 2 13.7V14.5H8V15.475C8 15.6917 8.04167 15.8877 8.125 16.063C8.20833 16.2383 8.325 16.384 8.475 16.5H2C1.45 16.5 0.979333 16.3043 0.588 15.913C0.196667 15.5217 0.000666667 15.0507 0 14.5V13.7ZM8 6.5C8.55 6.5 9.021 6.30433 9.413 5.913C9.805 5.52167 10.0007 5.05067 10 4.5C9.99933 3.94933 9.80367 3.47867 9.413 3.088C9.02233 2.69733 8.55133 2.50133 8 2.5C7.44867 2.49867 6.978 2.69467 6.588 3.088C6.198 3.48133 6.002 3.952 6 4.5C5.998 5.048 6.194 5.519 6.588 5.913C6.982 6.307 7.45267 6.50267 8 6.5Z" fill="#1A1A1A"/>
</svg>
