<svg width="30" height="30" viewBox="0 0 30 30" fill="none" xmlns="http://www.w3.org/2000/svg">
<g id="fluent:payment-24-regular">
<path id="Vector" d="M18.6875 18.125C18.4389 18.125 18.2004 18.2238 18.0246 18.3996C17.8488 18.5754 17.75 18.8139 17.75 19.0625C17.75 19.3111 17.8488 19.5496 18.0246 19.7254C18.2004 19.9012 18.4389 20 18.6875 20H21.8125C22.0611 20 22.2996 19.9012 22.4754 19.7254C22.6512 19.5496 22.75 19.3111 22.75 19.0625C22.75 18.8139 22.6512 18.5754 22.4754 18.3996C22.2996 18.2238 22.0611 18.125 21.8125 18.125H18.6875ZM1.5 10.3125C1.5 9.23506 1.92801 8.20175 2.68988 7.43988C3.45175 6.67801 4.48506 6.25 5.5625 6.25H22.4375C22.971 6.25 23.4993 6.35508 23.9922 6.55924C24.485 6.7634 24.9329 7.06264 25.3101 7.43988C25.6874 7.81712 25.9866 8.26496 26.1908 8.75785C26.3949 9.25073 26.5 9.779 26.5 10.3125V19.6875C26.5 20.221 26.3949 20.7493 26.1908 21.2422C25.9866 21.735 25.6874 22.1829 25.3101 22.5601C24.9329 22.9374 24.485 23.2366 23.9922 23.4408C23.4993 23.6449 22.971 23.75 22.4375 23.75H5.5625C4.48506 23.75 3.45175 23.322 2.68988 22.5601C1.92801 21.7983 1.5 20.7649 1.5 19.6875V10.3125ZM24.625 11.875V10.3125C24.625 9.73234 24.3945 9.17594 23.9843 8.7657C23.5741 8.35547 23.0177 8.125 22.4375 8.125H5.5625C4.98234 8.125 4.42594 8.35547 4.0157 8.7657C3.60547 9.17594 3.375 9.73234 3.375 10.3125V11.875H24.625ZM3.375 13.75V19.6875C3.375 20.895 4.355 21.875 5.5625 21.875H22.4375C23.0177 21.875 23.5741 21.6445 23.9843 21.2343C24.3945 20.8241 24.625 20.2677 24.625 19.6875V13.75H3.375Z" fill="black"/>
</g>
</svg>
