<svg width="22" height="19" viewBox="0 0 22 19" fill="none" xmlns="http://www.w3.org/2000/svg">
<path d="M20.0248 8.55V18.5H2.02483V8.55C1.6415 8.2 1.34583 7.75 1.13783 7.2C0.929835 6.65 0.925501 6.05 1.12483 5.4L2.64983 0.5H19.3998L20.9248 5.4C21.1248 6.05 21.1205 6.64167 20.9118 7.175C20.7032 7.70833 20.4075 8.16667 20.0248 8.55ZM13.2248 7.5C13.6748 7.5 14.0165 7.346 14.2498 7.038C14.4832 6.73 14.5748 6.384 14.5248 6L13.9748 2.5H12.0248V6.2C12.0248 6.55 12.1415 6.85433 12.3748 7.113C12.6082 7.37167 12.8915 7.50067 13.2248 7.5ZM8.72483 7.5C9.10817 7.5 9.42084 7.37067 9.66284 7.112C9.90483 6.85333 10.0255 6.54933 10.0248 6.2V2.5H8.07483L7.52483 6C7.45817 6.4 7.5455 6.75 7.78683 7.05C8.02817 7.35 8.34084 7.5 8.72483 7.5ZM4.27483 7.5C4.57483 7.5 4.83717 7.39167 5.06183 7.175C5.2865 6.95833 5.42417 6.68333 5.47483 6.35L6.02483 2.5H4.07483L3.07483 5.85C2.97483 6.18333 3.02883 6.54167 3.23683 6.925C3.44483 7.30833 3.79083 7.5 4.27483 7.5ZM17.7748 7.5C18.2582 7.5 18.6082 7.30833 18.8248 6.925C19.0415 6.54167 19.0915 6.18333 18.9748 5.85L17.9248 2.5H16.0248L16.5748 6.35C16.6248 6.68333 16.7625 6.95833 16.9878 7.175C17.2132 7.39167 17.4755 7.5 17.7748 7.5ZM4.02483 16.5H18.0248V9.45C17.9415 9.48333 17.8875 9.5 17.8628 9.5H17.7748C17.3248 9.5 16.9292 9.425 16.5878 9.275C16.2465 9.125 15.9088 8.88333 15.5748 8.55C15.2748 8.85 14.9332 9.08333 14.5498 9.25C14.1665 9.41667 13.7582 9.5 13.3248 9.5C12.8748 9.5 12.4538 9.41667 12.0618 9.25C11.6698 9.08333 11.3242 8.85 11.0248 8.55C10.7415 8.85 10.4125 9.08333 10.0378 9.25C9.66317 9.41667 9.25883 9.5 8.82483 9.5C8.3415 9.5 7.90417 9.41667 7.51283 9.25C7.1215 9.08333 6.7755 8.85 6.47483 8.55C6.12483 8.9 5.77917 9.146 5.43783 9.288C5.0965 9.43 4.70883 9.50067 4.27483 9.5H4.16283C4.12083 9.5 4.07483 9.48333 4.02483 9.45V16.5Z" fill="#1A1A1A"/>
</svg>
