<svg width="20" height="21" viewBox="0 0 20 21" fill="none" xmlns="http://www.w3.org/2000/svg">
<path d="M2.4082 20.1794C1.8582 20.1794 1.38754 19.9838 0.996203 19.5924C0.60487 19.2011 0.40887 18.7301 0.408203 18.1794V2.17944C0.408203 1.62944 0.604203 1.15878 0.996203 0.767443C1.3882 0.37611 1.85887 0.18011 2.4082 0.179443H9.5832C9.84987 0.179443 10.1042 0.229443 10.3462 0.329443C10.5882 0.429443 10.8005 0.57111 10.9832 0.754443L15.8332 5.60444C16.0165 5.78778 16.1582 6.00044 16.2582 6.24244C16.3582 6.48444 16.4082 6.73844 16.4082 7.00444V11.1794C16.4082 11.4628 16.3122 11.7004 16.1202 11.8924C15.9282 12.0844 15.6909 12.1801 15.4082 12.1794C15.1255 12.1788 14.8882 12.0828 14.6962 11.8914C14.5042 11.7001 14.4082 11.4628 14.4082 11.1794V7.17944H10.4082C10.1249 7.17944 9.88754 7.08344 9.6962 6.89144C9.50487 6.69944 9.40887 6.46211 9.4082 6.17944V2.17944H2.4082V18.1794H10.4082C10.6915 18.1794 10.9292 18.2754 11.1212 18.4674C11.3132 18.6594 11.4089 18.8968 11.4082 19.1794C11.4075 19.4621 11.3115 19.6998 11.1202 19.8924C10.9289 20.0851 10.6915 20.1808 10.4082 20.1794H2.4082ZM15.4082 17.6044V18.8294C15.4082 19.1128 15.3122 19.3504 15.1202 19.5424C14.9282 19.7344 14.6909 19.8301 14.4082 19.8294C14.1255 19.8288 13.8882 19.7331 13.6962 19.5424C13.5042 19.3518 13.4082 19.1141 13.4082 18.8294V15.1794C13.4082 14.8961 13.5042 14.6588 13.6962 14.4674C13.8882 14.2761 14.1255 14.1801 14.4082 14.1794H18.0582C18.3415 14.1794 18.5792 14.2754 18.7712 14.4674C18.9632 14.6594 19.0589 14.8968 19.0582 15.1794C19.0575 15.4621 18.9619 15.6998 18.7712 15.8924C18.5805 16.0851 18.3429 16.1808 18.0582 16.1794H16.8082L19.0582 18.4294C19.2415 18.6128 19.3332 18.8421 19.3332 19.1174C19.3332 19.3928 19.2415 19.6301 19.0582 19.8294C18.8582 20.0294 18.6209 20.1294 18.3462 20.1294C18.0715 20.1294 17.8339 20.0294 17.6332 19.8294L15.4082 17.6044Z" fill="#979797"/>
</svg>
